<?xml version="1.0" encoding="utf-8"?>
<!-- Generator: Adobe Illustrator 24.0.0, SVG Export Plug-In . SVG Version: 6.00 Build 0)  -->
<svg version="1.1" id="Calque_3" xmlns="http://www.w3.org/2000/svg" xmlns:xlink="http://www.w3.org/1999/xlink" x="0px" y="0px"
	 viewBox="0 0 118.3 115.8" style="enable-background:new 0 0 118.3 115.8;" fill="#fff" xml:space="preserve">
<path fill="#fff" class="st0" d="M118.3,57.9L49.9,0L27.1,18.8c0,0,10,9.4,10,39c0,29.6-10.2,39.1-10.2,39.1l23,18.9L118.3,57.9z M54.9,58.1
	c0-23.3-5-33.2-5-33.2l39,33l-38.9,33C49.9,90.9,54.9,81.4,54.9,58.1z"/>
<path fill="#fff" class="st0" d="M14.6,86.3L0,74c0,0,3.9-6.8,3.9-16.2C3.9,48.3,0,42,0,42l14.6-12.5c0,0,6.3,7.4,6.3,28.6S14.6,86.3,14.6,86.3z
	"/>
</svg>
