<svg xmlns="http://www.w3.org/2000/svg" viewBox="0 0 120 120"><defs><style>.cls-1{fill:#3a3089;}.cls-2{fill:#fff;}</style></defs><title>icon</title><g id="Calque_2" data-name="Calque 2"><rect class="cls-1" width="120" height="120"/></g><g id="Calque_3" data-name="Calque 3"><path class="cls-2" d="M103.67,60l-47-39.82L40.94,33.1s6.89,6.49,6.89,26.83-7,26.88-7,26.88l15.81,13Zm-43.6.16c0-16-3.45-22.84-3.45-22.84L83.42,60,56.66,82.68S60.07,76.2,60.07,60.18Z"/><path class="cls-2" d="M32.4,79.55,22.33,71.07A24.43,24.43,0,0,0,25,59.91a22.44,22.44,0,0,0-2.69-10.86L32.4,40.42s4.31,5.11,4.31,19.69S32.4,79.55,32.4,79.55Z"/></g></svg>